<?xml version="1.0"?>
<svg xmlns="http://www.w3.org/2000/svg" xmlns:xlink="http://www.w3.org/1999/xlink" version="1.1" viewBox="0 0 172 172" width="50px" height="50px"><g fill="none" fill-rule="nonzero" stroke="none" stroke-width="1" stroke-linecap="butt" stroke-linejoin="miter" stroke-miterlimit="10" stroke-dasharray="" stroke-dashoffset="0" font-family="none" font-weight="none" font-size="none" text-anchor="none" style="mix-blend-mode: normal"><path d="M0,172v-172h172v172z" fill="none"/><g fill="#cccccc"><path d="M27.52,10.35359c-11.9368,0 -20.60641,7.15332 -20.60641,16.99172c0,9.8728 8.87601,17.34109 20.60641,17.34109c11.9368,0 20.6064,-7.29145 20.6064,-17.54265c-0.5504,-9.8728 -9.048,-16.79016 -20.6064,-16.79016zM10.32,51.6c-1.892,0 -3.44,1.548 -3.44,3.44v99.76c0,1.892 1.548,3.44 3.44,3.44h34.4c1.892,0 3.44,-1.548 3.44,-3.44v-99.76c0,-1.892 -1.548,-3.44 -3.44,-3.44zM61.92,51.6c-1.892,0 -3.44,1.548 -3.44,3.44v99.76c0,1.892 1.548,3.44 3.44,3.44h30.96c1.89888,0 3.44,-1.54112 3.44,-3.44v-51.6v-0.86v-0.86c0,-8.1528 6.26295,-14.79361 14.24375,-15.41281c0.4128,-0.0688 0.82345,-0.06719 1.23625,-0.06719c0.4128,0 0.82345,-0.00161 1.23625,0.06719c7.9808,0.6192 14.24375,7.26001 14.24375,15.41281v53.32c0,1.89888 1.54112,3.44 3.44,3.44h30.96c1.892,0 3.44,-1.548 3.44,-3.44v-58.48c0,-22.2568 -11.94002,-44.72 -38.56563,-44.72c-12.1088,0 -21.25597,4.6792 -26.79437,8.5664v-5.1264c0,-1.892 -1.548,-3.44 -3.44,-3.44z"/></g></g></svg>
